<svg width="187" height="44" viewBox="0 0 187 44" fill="none" xmlns="http://www.w3.org/2000/svg">
<path d="M35.793 41.0664C32.4141 42.5508 28.1855 43.293 23.1074 43.293C8.32227 43.293 0.929688 36.0176 0.929688 21.4668C0.929688 7.69727 8.44922 0.8125 23.4883 0.8125C28.0781 0.8125 32.1797 1.49609 35.793 2.86328V9.89453C32.1797 8.33203 28.2734 7.55078 24.0742 7.55078C14.0156 7.55078 8.98633 12.1895 8.98633 21.4668C8.98633 31.5254 13.7324 36.5547 23.2246 36.5547C24.6309 36.5547 26.2324 36.3203 28.0293 35.8516V23.6641H35.793V41.0664ZM56.3008 24.543V30.6953H41.6523V24.543H56.3008ZM97.0234 41.2422C93.4102 42.6094 89.3086 43.293 84.7188 43.293C69.6797 43.293 62.1602 36.0176 62.1602 21.4668C62.1602 7.69727 69.6797 0.8125 84.7188 0.8125C89.3086 0.8125 93.4102 1.49609 97.0234 2.86328V9.89453C93.4102 8.33203 89.5039 7.55078 85.3047 7.55078C75.2461 7.55078 70.2168 12.1895 70.2168 21.4668C70.2168 31.5254 75.2461 36.5547 85.3047 36.5547C89.5039 36.5547 93.4102 35.7734 97.0234 34.2109V41.2422ZM103.615 43V1.10547H111.379V16.1641C113.801 13.5469 116.896 12.2383 120.666 12.2383C127.951 12.2383 131.594 16.0273 131.594 23.6055V43H123.83V23.6055C123.83 20.207 122.141 18.5078 118.762 18.5078C116.242 18.5078 113.781 19.5137 111.379 21.5254V43H103.615ZM137.482 33.4199C137.482 27.3066 141.936 24.25 150.842 24.25C152.932 24.25 155.021 24.4453 157.111 24.8359V22.5215C157.111 19.7676 155.129 18.3906 151.164 18.3906C147.805 18.3906 144.074 18.8789 139.973 19.8555V13.7031C144.074 12.7266 147.805 12.2383 151.164 12.2383C160.305 12.2383 164.875 15.6172 164.875 22.375V43H160.363L157.609 40.2461C154.934 42.082 151.984 43 148.762 43C141.242 43 137.482 39.8066 137.482 33.4199ZM157.111 30.1094C155.158 29.7188 153.068 29.5234 150.842 29.5234C147.111 29.5234 145.246 30.793 145.246 33.332C145.246 36.0664 146.809 37.4336 149.934 37.4336C152.512 37.4336 154.904 36.6328 157.111 35.0312V30.1094ZM171.789 7.25781H177.531L178.703 12.2383H186.438V18.3906H179.553V32.541C179.553 35.4121 180.793 36.8477 183.273 36.8477H186.438V43H179.523C174.367 43 171.789 40.2363 171.789 34.709V7.25781Z" fill="url(#paint0_linear_1_16)"/>
<defs>
<linearGradient id="paint0_linear_1_16" x1="244.197" y1="-41.4157" x2="27.0369" y2="79.7955" gradientUnits="userSpaceOnUse">
<stop stop-color="#BB0A21"/>
<stop offset="1" stop-color="#3596BF"/>
</linearGradient>
</defs>
</svg>
